<svg width="125" height="52" viewBox="0 0 125 52" xmlns="http://www.w3.org/2000/svg" fill="white">
    <path
        d="M25.294 43L30.474 17.1H39.798C42.7333 17.1 45.0027 17.7413 46.606 19.024C48.234 20.3067 49.048 22.1073 49.048 24.426C49.048 26.6213 48.5547 28.496 47.568 30.05C46.606 31.5793 45.2247 32.751 43.424 33.565C41.6233 34.379 39.4897 34.786 37.023 34.786H28.476L29.919 33.528L28.032 43H25.294ZM43.017 43L37.726 33.602H40.649L45.977 43H43.017ZM29.845 33.75L28.92 32.418H37.06C39.9953 32.418 42.2647 31.7643 43.868 30.457C45.496 29.1497 46.31 27.2257 46.31 24.685C46.31 22.983 45.7303 21.688 44.571 20.8C43.4117 19.912 41.759 19.468 39.613 19.468H31.584L32.99 18.136L29.845 33.75ZM51.0253 43L54.4903 25.51H57.6583L54.1933 43H51.0253ZM56.9983 22.144C56.4043 22.144 55.9203 21.957 55.5463 21.583C55.1943 21.209 55.0183 20.758 55.0183 20.23C55.0183 19.614 55.2273 19.097 55.6453 18.679C56.0633 18.239 56.6133 18.019 57.2953 18.019C57.8673 18.019 58.3403 18.206 58.7143 18.58C59.1103 18.932 59.3083 19.361 59.3083 19.867C59.3083 20.549 59.0993 21.099 58.6813 21.517C58.2633 21.935 57.7023 22.144 56.9983 22.144ZM72.6501 25.345C74.1901 25.345 75.4771 25.653 76.5111 26.269C77.5451 26.885 78.2601 27.787 78.6561 28.975C79.0741 30.141 79.1181 31.549 78.7881 33.199L76.8411 43H73.6731L75.6201 33.199C75.9501 31.615 75.7961 30.383 75.1581 29.503C74.5201 28.623 73.3761 28.183 71.7261 28.183C70.0321 28.183 68.6241 28.645 67.5021 29.569C66.3801 30.471 65.6321 31.868 65.2581 33.76L63.4101 43H60.2421L63.7071 25.51H66.7431L65.7531 30.526L65.1591 29.173C65.9951 27.853 67.0511 26.885 68.3271 26.269C69.6251 25.653 71.0661 25.345 72.6501 25.345ZM82.704 43L86.169 25.51H89.337L85.872 43H82.704ZM88.677 22.144C88.083 22.144 87.599 21.957 87.225 21.583C86.873 21.209 86.697 20.758 86.697 20.23C86.697 19.614 86.906 19.097 87.324 18.679C87.742 18.239 88.292 18.019 88.974 18.019C89.546 18.019 90.019 18.206 90.393 18.58C90.789 18.932 90.987 19.361 90.987 19.867C90.987 20.549 90.778 21.099 90.36 21.517C89.942 21.935 89.381 22.144 88.677 22.144ZM97.9268 43.198C96.8708 43.198 95.9578 42.967 95.1878 42.505C94.4398 42.043 93.9008 41.383 93.5708 40.525C93.2628 39.667 93.2188 38.655 93.4388 37.489L96.6068 21.682H99.7748L96.6068 37.423C96.4528 38.369 96.5408 39.128 96.8708 39.7C97.2228 40.25 97.8718 40.525 98.8178 40.525C99.2578 40.525 99.6978 40.459 100.138 40.327C100.578 40.173 100.974 39.964 101.326 39.7L101.986 42.109C101.392 42.527 100.732 42.813 100.006 42.967C99.3018 43.121 98.6088 43.198 97.9268 43.198ZM92.3498 28.117L92.8448 25.51H104.032L103.504 28.117H92.3498ZM104.999 49.6C104.163 49.6 103.338 49.457 102.524 49.171C101.71 48.907 101.072 48.533 100.61 48.049L102.26 45.706C102.634 46.08 103.074 46.366 103.58 46.564C104.064 46.784 104.614 46.894 105.23 46.894C105.956 46.894 106.605 46.696 107.177 46.3C107.771 45.926 108.376 45.255 108.992 44.287L110.642 41.746L111.005 41.383L121.004 25.51H124.205L111.797 44.914C111.027 46.102 110.301 47.037 109.619 47.719C108.937 48.401 108.222 48.885 107.474 49.171C106.748 49.457 105.923 49.6 104.999 49.6ZM110.048 43.561L105.659 25.51H108.827L112.556 41.086L110.048 43.561Z"
    />
    <path
        d="M1.073 36L6.253 10.1H12.284L7.104 36H1.073ZM18.5786 36L22.7596 14.984H14.4716L15.4706 10.1H38.0406L37.0416 14.984H28.7906L24.5726 36H18.5786Z"
    />
    <line x1="3.24134" y1="6.10702" x2="1.48841" y2="14.107" stroke="white" />
    <path d="M3 6.5H11" stroke="white" />
</svg>
    